<svg version="1.1" id="Layer_1" xmlns="http://www.w3.org/2000/svg" x="0px" y="0px" viewBox="0 0 89.2 89.2" xml:space="preserve">
	<linearGradient id="xdagcoin-gradient" gradientUnits="userSpaceOnUse" x1="74.9964" y1="76.8149" x2="14.1014" y2="11.5139" gradientTransform="matrix(1 0 0 -1 0 88.8)">
		<stop  offset="0" style="stop-color:#25DADC"/>
		<stop  offset="0.358" style="stop-color:#3BB9E2"/>
		<stop  offset="0.772" style="stop-color:#5198E7"/>
		<stop  offset="1" style="stop-color:#598CE9"/>
	</linearGradient>

	<path id="XMLID_127_" fill="url(#xdagcoin-gradient)" d="M44.6,0C19.9,0,0,20,0,44.6c0,24.7,20,44.6,44.6,44.6s44.6-20,44.6-44.6S69.2,0,44.6,0z
		 M69.3,12.5L48.2,37.3l3,2.6l17.5-20.6v50.9l-49-57.6c6.9-5.3,15.4-8.4,24.7-8.4C53.9,4,62.5,7.2,69.3,12.5z M3.9,44.7
		c0-11.4,4.8-21.8,12.4-29.2v58.4C8.7,66.5,3.9,56.1,3.9,44.7z M19.8,76.9l21.1-24.8l-3-2.6L20.4,70.1V19.3l49,57.6
		c-6.9,5.3-15.4,8.4-24.7,8.4S26.7,82.2,19.8,76.9z M72.8,73.9V15.5c7.6,7.4,12.4,17.7,12.4,29.2S80.5,66.5,72.8,73.9z"/>
</svg>
